<mxfile host="app.diagrams.net" modified="2023-05-06T03:19:04.835Z" agent="Mozilla/5.0 (Windows NT 10.0; Win64; x64; rv:109.0) Gecko/20100101 Firefox/112.0" etag="3Or7gVOH3-wIjAbkBFcd" version="21.2.2" type="github">
  <diagram name="Page-1" id="9LM1i-9I-Iy4AfFoMxp8">
    <mxGraphModel dx="1434" dy="754" grid="1" gridSize="10" guides="1" tooltips="1" connect="1" arrows="1" fold="1" page="1" pageScale="1" pageWidth="850" pageHeight="1100" math="0" shadow="0">
      <root>
        <mxCell id="0" />
        <mxCell id="1" parent="0" />
        <mxCell id="eocBnmh_ppd_C2oi4ZVE-3" style="edgeStyle=orthogonalEdgeStyle;rounded=0;orthogonalLoop=1;jettySize=auto;html=1;" edge="1" parent="1" source="eocBnmh_ppd_C2oi4ZVE-1" target="eocBnmh_ppd_C2oi4ZVE-2">
          <mxGeometry relative="1" as="geometry" />
        </mxCell>
        <mxCell id="eocBnmh_ppd_C2oi4ZVE-1" value="PDF/WORD" style="rounded=1;whiteSpace=wrap;html=1;" vertex="1" parent="1">
          <mxGeometry x="60" y="320" width="120" height="60" as="geometry" />
        </mxCell>
        <mxCell id="eocBnmh_ppd_C2oi4ZVE-2" value="大纲" style="rounded=1;whiteSpace=wrap;html=1;" vertex="1" parent="1">
          <mxGeometry x="260" y="320" width="120" height="60" as="geometry" />
        </mxCell>
      </root>
    </mxGraphModel>
  </diagram>
</mxfile>
